<svg fill="white" xmlns="http://www.w3.org/2000/svg" viewBox="0 0 1000 1000"><path d="M41.15 11.31C31 13.8 21.43 20.88 15.88 30.26l-5.17 9-.57 372.38c-.38 273.97 0 375.06 1.53 382.53 2.49 11.68 10.34 21.63 21.25 27.38 7.08 3.64 13.59 3.64 257.31 3.64h249.85V786.9l-163.12-.38-163.31-.57-.57-306.9-.38-306.71h737.1v407.8H990l-.38-270.52-.57-270.33-5.36-9a39.777 39.777 0 00-14.36-14.36l-9-5.36-456.62-.38c-251.19-.03-459.3.36-462.56 1.12zm643.1 44.8c27.95 16.46 26.04 57.82-3.06 71.99-27.19 13.21-58.78-6.89-58.78-37.14 0-31.78 34.08-50.93 61.84-34.85zm122.53 0c27.95 16.46 26.04 57.82-3.06 71.99-27.19 13.21-58.59-6.7-58.78-36.95-.19-31.78 34.27-51.12 61.84-35.04zm122.53 0c27.95 16.46 26.04 57.82-3.06 71.99-27.19 13.21-58.59-6.7-58.78-36.95-.19-31.78 34.27-51.12 61.84-35.04zM174.02 479.04l-.57 306.9-61.65.57-61.84.38V172.33H174.4l-.38 306.71z"/><path d="M92.08 274.75v20.1h40.2v-40.2h-40.2v20.1zM92.08 357.08v20.1h40.2v-40.2h-40.2v20.1zM92.08 438.45v19.14h40.2V419.3h-40.2v19.15zM92.08 519.82v20.1h40.2v-40.2h-40.2v20.1zM92.08 602.14v20.1h40.2v-40.2h-40.2v20.1zM92.08 683.51v19.15h40.2v-38.29h-40.2v19.14zM316.66 278.97l-52.27 22.21v29.48l51.31 21.63c28.14 11.87 52.27 22.02 53.61 22.4 1.72.77 2.3-3.25 2.3-16.08v-17.04l-35.23-12.25c-19.34-6.89-35.04-12.83-34.65-13.59.38-.57 16.27-6.7 35.42-13.4l34.46-12.25v-16.85c0-9.19-.57-16.66-1.34-16.66-.96.19-25.09 10.14-53.61 22.4zM548.12 273.03l.57 17.04 36.38 12.83c34.65 12.06 36.19 12.83 30.63 14.93-3.06 1.15-19.53 7.08-36.38 13.02l-30.62 10.91-.57 16.66c-.19 9.38 0 16.85.57 16.85.76 0 25.27-10.15 54.75-22.4l53.42-22.4v-29.1l-51.12-21.44c-28.33-11.68-52.84-21.83-54.75-22.59-3.07-1.16-3.45.18-2.88 15.69zM423.3 315.92v19.15h76.58v-38.3H423.3v19.15zM254.82 438.45v19.14h122.54V419.3H254.82v19.15zM419.47 438.45v19.14h325.47V419.3H419.47v19.15zM254.82 519.82v20.1h245.06v-40.2H254.82v20.1zM542 519.82v20.1h202.94v-40.2H542v20.1zM744.56 605.4l-.57 23.16-5.74 1.92c-3.06.96-12.44 4.79-20.68 8.62l-14.93 6.89-16.27-16.27-16.08-16.08-28.14 28.33-28.33 28.14 16.08 16.08 16.27 16.27-6.89 14.94c-3.83 8.23-7.66 17.42-8.62 20.68l-1.92 5.74-23.17.57-23.36.58v80.02l22.97.57 23.17.57 4.41 12.44c2.3 6.89 6.32 16.28 8.62 20.87l4.4 8.42-16.48 16.49-16.46 16.46 28.72 28.72 28.72 28.72 16.08-16.08 16.08-16.08 16.08 6.89c8.62 3.83 18.19 7.47 21.25 8.04l5.17 1.34v47.48h80.22l.57-23.17.57-23.17 11.49-4.21c6.32-2.3 15.89-6.51 21.06-9.19l9.57-5.17 16.85 16.66 16.66 16.66 28.14-28.34 28.33-28.14-16.66-16.66-16.64-16.85 5.17-9.57c2.68-5.36 6.89-14.74 9.19-21.06l4.21-11.49 23.17-.57 23.17-.57v-80.22h-47.48l-1.34-5.36c-.57-2.87-4.21-12.45-8.04-21.06l-6.89-16.08 16.08-16.08 16.08-16.08-28.72-28.72-28.72-28.72-16.46 16.47-16.48 16.45-8.42-4.4c-4.6-2.3-13.98-6.32-20.87-8.62l-12.45-4.4-.57-23.17-.57-22.97h-80.02l-.58 23.36zm72.56 82.89c18.19 6.13 31.59 14.74 43.65 28.14 19.53 21.44 28.91 47.48 27.19 75.24C882.02 878.22 780.55 919 716.6 860.6c-42.89-39.06-44.23-106.26-3.06-147.23 12.06-12.25 29.48-22.4 45.95-27 16.27-4.39 40.97-3.63 57.63 1.92z"/></svg>